<svg width="40" height="40" viewBox="0 0 40 40" fill="none" xmlns="http://www.w3.org/2000/svg">
  <defs>
    <linearGradient id="logoGradient" x1="0%" y1="0%" x2="100%" y2="100%">
      <stop offset="0%" style="stop-color:#10b981"/>
      <stop offset="100%" style="stop-color:#059669"/>
    </linearGradient>
  </defs>
  <!-- Stylized F with curved top and flowing arrow -->
  <!-- Main F vertical stroke -->
  <path d="M6 8C6 5.5 8 4 10.5 4C13 4 18 4 22 8C26 12 26 14 24 16C22 18 18 18 16 18L16 34C16 36 14.5 38 12 38C9.5 38 8 36 8 34L8 18L8 14C8 12 10 12 12 12L20 12"
        stroke="url(#logoGradient)"
        stroke-width="3.5"
        stroke-linecap="round"
        stroke-linejoin="round"
        fill="none"/>
  <!-- Arrow flowing out -->
  <path d="M24 22C28 22 32 24 34 28"
        stroke="url(#logoGradient)"
        stroke-width="2.5"
        stroke-linecap="round"
        fill="none"/>
  <path d="M30 26L34 28L32 32"
        stroke="url(#logoGradient)"
        stroke-width="2.5"
        stroke-linecap="round"
        stroke-linejoin="round"
        fill="none"/>
</svg>
