<svg width="40" height="40" viewBox="0 0 40 40" fill="none" xmlns="http://www.w3.org/2000/svg">
  <defs>
    <linearGradient id="logoGradient" x1="0%" y1="0%" x2="100%" y2="100%">
      <stop offset="0%" style="stop-color:#10b981"/>
      <stop offset="100%" style="stop-color:#059669"/>
    </linearGradient>
  </defs>
  <!-- F shape with arrow - inspired by FreelanceFlow logo -->
  <path d="M8 6C8 4.89543 8.89543 4 10 4H24C25.1046 4 26 4.89543 26 6V10C26 11.1046 25.1046 12 24 12H16V16H22C23.1046 16 24 16.8954 24 18V22C24 23.1046 23.1046 24 22 24H16V32C16 33.1046 15.1046 34 14 34H10C8.89543 34 8 33.1046 8 32V6Z" fill="url(#logoGradient)"/>
  <!-- Arrow pointing right -->
  <path d="M22 28L30 28M30 28L26 24M30 28L26 32" stroke="url(#logoGradient)" stroke-width="2.5" stroke-linecap="round" stroke-linejoin="round"/>
</svg>
