<?xml version="1.0" standalone="no"?>
<!DOCTYPE svg PUBLIC "-//W3C//DTD SVG 20010904//EN"
 "http://www.w3.org/TR/2001/REC-SVG-20010904/DTD/svg10.dtd">
<svg version="1.0" xmlns="http://www.w3.org/2000/svg"
 width="1024.000000pt" height="559.000000pt" viewBox="0 0 1024.000000 559.000000"
 preserveAspectRatio="xMidYMid meet">

<g transform="translate(0.000000,559.000000) scale(0.100000,-0.100000)"
fill="#000000" stroke="none">
<path d="M1970 3506 c-139 -30 -260 -126 -326 -260 l-39 -80 -5 -295 c-3 -163
-4 -297 -4 -299 1 -1 15 19 32 45 18 26 47 65 66 85 l34 37 4 198 c3 177 6
203 25 245 28 59 84 122 141 155 81 48 128 53 515 53 319 0 357 -2 357 -16 0
-8 -27 -42 -59 -75 -33 -32 -56 -59 -52 -59 4 0 11 3 15 7 11 11 36 12 36 1 0
-6 -6 -8 -14 -5 -8 3 -17 3 -21 -1 -10 -11 -39 -12 -366 -20 l-306 -7 -36 -28
c-62 -47 -77 -89 -77 -218 0 -111 0 -111 23 -104 12 4 41 12 65 18 38 11 42
14 41 42 -1 17 -3 22 -6 12 -8 -32 -23 -6 -23 41 0 45 13 49 23 7 3 -11 5 3 6
32 1 41 5 55 20 63 12 6 114 10 260 10 133 0 241 4 241 8 0 4 -32 6 -71 4 -74
-5 -161 14 -137 29 18 11 196 3 211 -9 8 -7 18 -7 27 -2 8 6 22 10 30 9 9 0 5
-6 -10 -14 l-25 -14 26 -1 c57 0 187 59 174 80 -7 11 34 54 42 46 3 -3 -5 -14
-18 -25 -13 -11 -19 -20 -13 -21 22 0 96 92 125 156 16 35 32 91 36 124 l6 60
-459 -1 c-316 0 -476 -4 -514 -13z m400 -317 c0 -12 -91 -21 -133 -13 -38 7
-40 8 -17 15 29 9 150 7 150 -2z m-413 -41 c-3 -8 -6 -5 -6 6 -1 11 2 17 5 13
3 -3 4 -12 1 -19z m453 12 c0 -5 -19 -10 -42 -9 -33 0 -38 2 -23 9 28 12 65
12 65 0z m-412 -12 c-2 -8 23 -16 67 -23 49 -8 65 -14 52 -19 -9 -5 -33 -6
-51 -4 -19 2 -33 1 -30 -3 2 -4 -3 -12 -11 -19 -8 -7 -15 -19 -15 -27 0 -8 -5
-11 -10 -8 -6 4 -8 10 -5 15 3 5 1 11 -3 14 -7 4 -9 69 -3 84 3 8 11 0 9 -10z
m-54 -29 c-3 -5 -10 -7 -15 -3 -5 3 -7 10 -3 15 3 5 10 7 15 3 5 -3 7 -10 3
-15z m-17 -51 c-3 -8 -6 -5 -6 6 -1 11 2 17 5 13 3 -3 4 -12 1 -19z m29 -50
c-3 -13 -6 -32 -7 -43 0 -11 -3 -14 -6 -7 -2 6 -9 10 -14 6 -5 -3 -9 11 -9 30
0 30 4 36 21 36 17 0 20 -4 15 -22z m14 -48 c0 -16 -4 -30 -8 -30 -5 0 -7 14
-4 30 2 17 6 30 8 30 2 0 4 -13 4 -30z"/>
<path d="M4880 2770 l0 -280 50 0 50 0 0 280 0 280 -50 0 -50 0 0 -280z"/>
<path d="M7410 2790 c0 -226 2 -259 15 -254 9 4 15 0 15 -9 0 -21 -17 -31 -23
-15 -3 8 -6 6 -6 -4 -1 -14 7 -18 34 -18 l35 0 0 280 0 280 -35 0 -35 0 0
-260z m29 153 c1 -24 -3 -43 -9 -43 -6 0 -10 27 -9 63 1 71 17 53 18 -20z m31
-5 c-1 -41 -3 -49 -11 -36 -9 16 -3 88 7 88 2 0 4 -24 4 -52z m-30 -235 c0
-28 -4 -55 -10 -58 -6 -4 -10 21 -10 67 0 51 3 68 10 58 5 -8 10 -38 10 -67z
m29 -5 c-1 -68 -2 -71 -11 -35 -9 34 -4 107 7 107 3 0 5 -33 4 -72z m1 -163
c0 -19 -4 -35 -9 -35 -5 0 -8 12 -6 28 2 15 4 30 4 35 1 4 3 7 6 7 3 0 5 -16
5 -35z"/>
<path d="M3190 2755 l0 -265 45 0 45 0 0 105 0 105 130 0 130 0 0 40 0 40
-130 0 -130 0 0 80 0 80 148 0 148 0 -4 40 -4 40 -189 0 -189 0 0 -265z"/>
<path d="M6950 3011 c0 -6 5 -13 10 -16 6 -3 10 -14 9 -23 0 -14 -2 -13 -9 3
-5 12 -9 -35 -9 -125 -1 -104 3 -150 12 -159 10 -11 10 -14 0 -18 -9 -3 -13
-32 -13 -94 l0 -89 40 0 40 0 0 110 0 110 130 0 130 0 0 30 0 30 -130 0 -130
0 0 90 0 90 145 0 145 0 0 35 c0 19 -4 35 -8 35 -5 0 -7 -13 -4 -30 4 -26 2
-29 -19 -24 -49 11 -239 6 -255 -6 -11 -10 -14 -32 -12 -104 l3 -91 128 -3
c70 -1 127 -7 127 -12 0 -5 -52 -7 -119 -4 -145 6 -141 10 -141 -140 0 -85 -3
-106 -14 -106 -22 0 -46 11 -46 21 0 4 6 6 13 3 11 -4 13 12 9 78 -2 46 -4 97
-4 113 0 25 -1 27 -8 10 -7 -16 -8 -14 -7 12 2 24 5 29 15 21 9 -8 12 -6 12 6
0 9 -4 16 -9 16 -6 0 -6 12 0 33 5 17 7 69 4 114 l-5 82 112 4 113 3 -127 2
c-75 1 -128 -2 -128 -7z"/>
<path d="M2352 2896 c2 -51 -1 -88 -7 -91 -5 -2 3 -2 19 0 32 5 47 14 25 16
-8 1 -17 1 -21 0 -5 0 -8 9 -8 22 1 20 2 20 11 4 13 -23 39 -5 34 23 -2 10 3
26 11 37 9 10 13 12 9 6 -3 -7 -1 -13 5 -13 6 0 8 -5 5 -10 -4 -6 -11 -7 -17
-4 -7 4 -8 2 -4 -5 6 -8 12 -9 20 -2 7 6 16 8 20 4 4 -4 4 0 0 10 -6 16 -5 16
24 0 25 -14 29 -20 19 -33 -6 -8 -7 -12 -3 -8 5 4 15 3 21 -2 9 -7 14 -6 18 4
4 10 -14 26 -61 52 -37 20 -80 46 -95 57 l-29 19 4 -86z m31 47 c3 -5 -1 -14
-9 -21 -12 -11 -14 -9 -14 8 0 20 14 27 23 13z"/>
<path d="M3828 2890 c-15 -4 -41 -18 -58 -30 l-30 -21 0 25 c0 24 -3 26 -45
26 l-45 0 0 -200 0 -200 45 0 45 0 0 105 c0 71 5 117 15 143 17 42 59 72 99
72 24 0 26 3 26 45 0 48 -3 50 -52 35z"/>
<path d="M4035 2874 c-76 -39 -123 -126 -112 -206 8 -61 54 -128 107 -154 82
-42 230 -26 264 28 8 13 5 23 -14 43 -21 23 -25 24 -41 10 -50 -46 -148 -38
-193 16 -49 58 -43 60 129 53 l155 -7 0 42 c0 117 -78 191 -202 191 -37 0 -75
-6 -93 -16z m148 -65 c26 -15 56 -50 57 -66 0 -7 -10 -14 -22 -14 -34 -2 -193
3 -196 6 -8 8 25 58 47 70 32 17 85 19 114 4z"/>
<path d="M4478 2861 c-65 -41 -92 -101 -85 -188 6 -75 36 -122 103 -160 53
-31 167 -32 224 -3 52 27 57 38 27 67 l-25 26 -45 -22 c-49 -24 -101 -22 -144
5 -25 16 -57 70 -45 77 4 2 76 3 160 2 l152 -2 0 37 c0 55 -42 131 -92 163
-36 23 -53 27 -113 27 -61 0 -77 -4 -117 -29z m180 -57 c12 -8 29 -28 37 -44
14 -27 14 -28 -15 -32 -16 -3 -67 -2 -113 0 -77 4 -84 6 -80 23 3 11 19 30 35
44 35 29 101 34 136 9z"/>
<path d="M5122 2870 l-42 -19 16 -35 17 -34 41 19 c82 37 162 16 181 -48 6
-22 4 -23 -60 -23 -139 0 -205 -40 -205 -124 0 -76 50 -116 147 -116 40 0 68
6 91 20 41 25 46 25 39 0 -5 -18 0 -20 39 -20 l44 0 0 143 c0 161 -10 195 -69
234 -29 19 -47 23 -115 22 -56 0 -94 -6 -124 -19z m211 -240 c-2 -41 -29 -66
-81 -76 -47 -9 -86 12 -90 49 -6 51 21 66 118 63 l55 -1 -2 -35z"/>
<path d="M5540 2690 l0 -200 50 0 50 0 0 129 c0 114 2 131 20 154 40 50 124
55 160 9 18 -22 20 -40 20 -158 l0 -134 51 0 51 0 -4 148 c-4 164 -14 198 -71
232 -49 30 -153 28 -201 -5 l-36 -24 0 24 c0 23 -4 25 -45 25 l-45 0 0 -200z"/>
<path d="M6135 2873 c-81 -42 -122 -117 -112 -204 8 -68 33 -107 91 -146 43
-29 56 -33 118 -33 76 0 97 8 145 53 36 33 35 40 -7 62 -27 14 -30 14 -54 -10
-21 -21 -35 -25 -80 -25 -49 0 -57 3 -84 34 -33 38 -47 83 -36 118 13 44 45
78 84 89 46 14 79 7 117 -25 l28 -24 32 22 c31 21 31 24 17 44 -40 58 -187 83
-259 45z"/>
<path d="M6542 2863 c-106 -69 -122 -236 -31 -320 59 -54 185 -70 265 -34 56
25 62 38 31 69 -25 25 -26 25 -53 7 -37 -24 -121 -24 -158 0 -29 19 -61 71
-48 78 4 3 76 3 160 2 l152 -3 0 37 c0 58 -47 142 -95 168 -61 35 -167 32
-223 -4z m194 -77 c19 -19 34 -39 34 -45 0 -10 -55 -13 -200 -13 -31 0 -31 0
-15 31 21 42 53 61 103 61 37 0 50 -6 78 -34z"/>
<path d="M7684 2865 c-74 -37 -99 -81 -99 -174 0 -62 4 -83 24 -114 13 -21 26
-36 29 -33 2 3 0 12 -7 19 -13 16 -4 50 10 41 5 -3 9 0 9 7 0 16 11 5 14 -13
3 -24 16 -37 31 -31 8 3 15 0 15 -5 0 -6 10 -14 21 -17 17 -6 19 -9 8 -16 -10
-6 -8 -8 8 -6 12 0 19 5 17 9 -3 4 5 8 18 9 18 1 17 2 -8 8 -45 11 -89 40
-108 71 -17 30 -21 106 -7 129 7 11 2 22 -15 38 -23 21 -23 28 -1 24 5 -1 6 3
3 8 -4 5 -1 13 6 18 16 10 78 11 78 1 0 -5 -7 -8 -16 -8 -8 0 -12 -5 -9 -10 4
-7 12 -7 25 0 41 22 117 5 149 -34 7 -9 19 -33 27 -53 11 -31 13 -34 13 -13 1
14 -3 31 -8 39 -14 22 -2 39 25 36 23 -2 24 -1 11 19 -7 11 -37 33 -67 49 -69
35 -129 36 -196 2z m119 8 c-7 -2 -19 -2 -25 0 -7 3 -2 5 12 5 14 0 19 -2 13
-5z m-33 -19 c0 -8 -19 -13 -24 -6 -3 5 1 9 9 9 8 0 15 -2 15 -3z m160 -40 c0
-3 -9 0 -20 6 -14 7 -20 7 -20 0 0 -5 4 -10 10 -10 5 0 7 -7 4 -15 -5 -12 -9
-11 -27 5 -11 11 -24 20 -29 20 -4 0 -8 5 -8 10 0 6 7 10 15 10 8 0 15 5 15
11 0 6 14 1 30 -11 17 -12 30 -23 30 -26z m-285 -41 c3 -9 0 -21 -6 -27 -9 -8
-10 -8 -5 2 4 6 2 12 -4 12 -6 0 -8 5 -5 10 3 6 1 10 -4 10 -6 0 -11 4 -11 10
0 14 28 1 35 -17z m5 -143 c0 -5 -5 -10 -11 -10 -5 0 -7 5 -4 10 3 6 8 10 11
10 2 0 4 -4 4 -10z"/>
<path d="M8027 2865 c8 -36 32 -95 33 -78 0 6 -4 23 -9 36 -8 20 -6 27 5 31 8
3 12 2 9 -3 -3 -5 4 -13 16 -16 19 -6 20 -8 3 -26 -9 -10 -12 -19 -6 -19 5 0
8 -9 5 -21 -5 -16 -8 -18 -15 -7 -7 9 -8 7 -3 -7 4 -11 13 -40 22 -65 12 -36
19 -45 39 -46 21 -2 23 0 12 14 -11 13 -10 14 2 10 8 -2 20 -24 25 -47 6 -23
16 -45 22 -49 7 -4 11 -21 11 -38 -1 -26 -4 -30 -20 -26 -13 3 -17 10 -12 24
5 16 3 19 -7 12 -11 -6 -11 -4 0 10 11 13 11 20 3 28 -7 7 -12 20 -12 30 0 10
-5 18 -11 18 -5 0 -7 -4 -4 -10 3 -5 1 -10 -4 -10 -6 0 -11 5 -11 12 0 6 -2 9
-5 6 -3 -2 7 -34 21 -71 25 -64 28 -67 58 -67 33 0 33 1 70 103 21 56 45 121
53 145 9 23 18 42 22 42 3 0 25 -55 49 -123 65 -182 57 -169 99 -165 21 2 38
9 41 18 5 13 3 13 -11 1 -10 -8 -17 -9 -17 -3 0 6 5 14 10 17 6 4 8 11 5 16
-4 5 -2 9 4 9 5 0 11 -5 13 -11 2 -6 18 29 35 77 17 49 45 127 62 174 36 100
36 100 14 99 -11 0 -13 -3 -5 -6 6 -2 12 -9 12 -15 0 -6 -9 -3 -20 7 -23 21
-32 15 -50 -35 -54 -154 -70 -204 -65 -208 3 -3 5 0 5 8 0 10 3 10 16 0 22
-19 15 -66 -11 -62 -11 2 -26 4 -32 4 -7 1 -18 17 -24 35 -6 19 -13 32 -15 30
-3 -2 0 -16 5 -30 9 -22 7 -28 -9 -37 -14 -7 -20 -7 -20 0 0 5 4 10 8 10 5 0
8 10 6 23 -1 12 -3 27 -3 32 -1 6 -6 3 -11 -5 -5 -8 -7 -23 -4 -32 3 -10 3
-18 1 -18 -9 0 -69 182 -62 188 10 10 29 9 38 -3 11 -13 0 31 -19 75 -10 23
-22 36 -35 37 -15 1 -19 -3 -15 -15 5 -15 4 -14 -8 1 -16 21 -29 8 -19 -19 4
-11 3 -15 -4 -11 -6 4 -13 -1 -16 -11 -26 -86 -88 -247 -94 -245 -4 1 -14 26
-23 55 -8 29 -31 97 -50 150 -32 89 -37 98 -60 97 l-25 -1 25 -8 25 -8 -27 -1
c-14 -1 -29 5 -32 12 -3 6 -2 -1 1 -18z m342 -54 c-10 -28 -13 -31 -21 -17 -5
9 -13 14 -17 11 -5 -2 -8 6 -8 19 0 18 4 23 18 21 11 -2 19 1 19 8 0 7 3 8 10
1 7 -7 7 -21 -1 -43z m235 -55 c-2 -17 -12 -38 -22 -49 -19 -18 -19 -18 -17
10 3 42 4 43 23 36 16 -6 16 -5 -1 14 -10 12 -15 27 -11 37 6 15 7 15 19 -1 7
-10 11 -31 9 -47z m-474 -24 c0 -3 -3 -2 -7 1 -3 4 -12 -1 -20 -11 -12 -16
-13 -16 -6 2 4 13 3 17 -4 13 -8 -5 -8 3 0 28 l11 36 13 -32 c7 -17 13 -34 13
-37z m157 38 c-3 -11 -1 -20 4 -20 5 0 9 5 9 10 0 6 4 10 9 10 5 0 4 -13 -2
-29 -6 -17 -14 -28 -18 -25 -4 2 -5 -4 -2 -14 2 -9 -3 -31 -11 -47 -9 -17 -16
-37 -16 -45 0 -8 -4 -21 -9 -29 -13 -20 -32 19 -24 49 6 22 7 23 14 4 7 -18 7
-18 14 0 5 11 3 21 -6 26 -7 5 -10 12 -6 17 5 4 12 1 17 -7 6 -8 10 -10 10 -5
0 6 -4 16 -9 24 -5 8 -3 31 6 57 15 44 30 62 20 24z m257 -116 c3 -8 2 -12 -4
-9 -6 3 -10 10 -10 16 0 14 7 11 14 -7z m-309 -116 c-10 -33 -21 -42 -29 -23
-4 11 -2 14 6 9 7 -5 9 -2 5 8 -6 17 0 28 15 28 5 0 6 -10 3 -22z m252 -5 c0
-20 -16 -35 -29 -27 -4 3 -8 10 -8 15 0 6 4 8 9 5 5 -3 11 1 15 9 7 20 13 19
13 -2z"/>
<path d="M8340 2821 c0 -6 4 -13 10 -16 6 -3 7 1 4 9 -7 18 -14 21 -14 7z"/>
<path d="M2592 2827 c19 -15 13 -31 -6 -20 -6 4 -17 8 -24 9 -10 2 -10 -1 -2
-11 7 -8 9 -18 6 -23 -3 -5 1 -9 8 -9 8 0 12 6 9 13 -3 9 7 11 37 9 23 -2 40
-2 38 -1 -18 13 -79 44 -66 33z"/>
<path d="M2000 2816 c-184 -51 -333 -206 -387 -401 -7 -27 -16 -126 -20 -219
l-6 -169 69 5 c173 13 316 142 353 316 13 61 15 262 3 262 -12 0 -95 -54 -108
-71 -6 -8 -14 -51 -16 -95 -3 -62 -11 -95 -32 -137 -25 -52 -89 -117 -115
-117 -19 0 -13 141 9 211 36 117 106 203 214 261 57 30 68 33 176 36 136 3
160 7 160 27 0 10 -10 15 -29 15 -24 0 -29 4 -26 20 7 35 16 42 50 38 19 -2
31 0 29 4 -3 4 -22 9 -42 10 -33 1 -32 2 13 8 33 5 -1 7 -100 8 -91 0 -168 -5
-195 -12z"/>
<path d="M7673 2793 c0 -9 4 -10 14 -2 7 6 13 12 13 14 0 1 -6 2 -13 2 -8 0
-14 -6 -14 -14z"/>
<path d="M8416 2740 c10 -38 32 -87 32 -70 0 8 -8 33 -19 55 -10 22 -16 29
-13 15z"/>
<path d="M2610 2738 c0 -3 -9 -4 -20 -1 -12 3 -20 0 -20 -6 0 -7 5 -9 10 -6
14 9 12 -8 -2 -25 -7 -7 5 -3 27 10 56 32 61 38 31 37 -14 -1 -26 -5 -26 -9z"/>
<path d="M2311 2724 c0 -11 3 -14 6 -6 3 7 2 16 -1 19 -3 4 -6 -2 -5 -13z"/>
<path d="M2373 2694 c-5 -13 -7 -13 -14 -2 -5 8 -9 -16 -9 -59 0 -40 2 -73 5
-73 16 0 204 123 200 131 -4 5 -8 9 -11 9 -3 0 -2 -4 1 -10 3 -5 -6 -12 -20
-16 -14 -3 -25 -10 -25 -14 0 -10 -40 -23 -64 -20 -12 1 -16 -2 -11 -11 6 -8
4 -10 -4 -5 -7 5 -10 14 -7 22 3 8 2 13 -2 13 -4 -1 -14 -1 -22 0 -13 1 -13 2
0 11 12 7 12 10 1 10 -7 0 -11 6 -7 15 3 8 3 15 0 15 -2 0 -7 -7 -11 -16z m14
-84 c14 0 14 -3 -2 -20 -10 -11 -21 -18 -24 -15 -3 4 1 10 9 15 10 7 11 10 3
10 -7 0 -12 10 -12 23 1 16 2 18 6 5 2 -10 12 -18 20 -18z"/>
<path d="M7976 2688 c-3 -13 -7 -34 -9 -48 -2 -14 -8 -34 -11 -45 -5 -12 -2
-10 7 5 15 26 33 110 23 110 -3 0 -8 -10 -10 -22z"/>
<path d="M7905 2648 c-5 -18 -9 -38 -9 -45 -1 -7 -8 -18 -16 -25 -12 -11 -12
-10 0 7 14 19 14 19 -5 3 -11 -9 -32 -22 -45 -28 -25 -10 -24 -10 3 -5 17 3
36 0 45 -7 13 -10 14 -10 8 0 -4 7 -4 12 1 11 24 -4 29 6 30 61 0 33 -1 60 -2
60 -1 0 -6 -15 -10 -32z"/>
<path d="M2450 2659 c0 -5 5 -7 10 -4 6 3 10 8 10 11 0 2 -4 4 -10 4 -5 0 -10
-5 -10 -11z"/>
<path d="M7921 2550 c-13 -11 -29 -20 -37 -20 -8 0 -14 -4 -14 -10 0 -17 14
-11 50 20 19 16 33 29 30 29 -3 0 -16 -9 -29 -19z"/>
<path d="M7650 2545 c0 -37 157 -73 200 -45 9 6 -5 7 -42 3 -48 -5 -62 -2 -95
18 -21 13 -40 24 -43 24 -3 0 -4 3 -2 8 1 4 -2 7 -8 7 -5 0 -10 -7 -10 -15z"/>
</g>
</svg>
