<?xml version="1.0" standalone="no"?>
<svg version="1.0" xmlns="http://www.w3.org/2000/svg"
 width="32" height="32" viewBox="0 0 300 320"
 preserveAspectRatio="xMidYMid meet">
<g transform="translate(0,320) scale(0.1,-0.1)"
fill="#10b981" stroke="none">
<!-- Main F shape with curved top and flowing elements -->
<path d="M370 3006 c-139 -30 -260 -126 -326 -260 l-39 -80 -5 -295 c-3 -163
-4 -297 -4 -299 1 -1 15 19 32 45 18 26 47 65 66 85 l34 37 4 198 c3 177 6
203 25 245 28 59 84 122 141 155 81 48 128 53 515 53 319 0 357 -2 357 -16 0
-8 -27 -42 -59 -75 -33 -32 -56 -59 -52 -59 4 0 11 3 15 7 11 11 36 12 36 1 0
-6 -6 -8 -14 -5 -8 3 -17 3 -21 -1 -10 -11 -39 -12 -366 -20 l-306 -7 -36 -28
c-62 -47 -77 -89 -77 -218 0 -111 0 -111 23 -104 12 4 41 12 65 18 38 11 42
14 41 42 -1 17 -3 22 -6 12 -8 -32 -23 -6 -23 41 0 45 13 49 23 7 3 -11 5 3 6
32 1 41 5 55 20 63 12 6 114 10 260 10 133 0 241 4 241 8 0 4 -32 6 -71 4 -74
-5 -161 14 -137 29 18 11 196 3 211 -9 8 -7 18 -7 27 -2 8 6 22 10 30 9 9 0 5
-6 -10 -14 l-25 -14 26 -1 c57 0 187 59 174 80 -7 11 34 54 42 46 3 -3 -5 -14
-18 -25 -13 -11 -19 -20 -13 -21 22 0 96 92 125 156 16 35 32 91 36 124 l6 60
-459 -1 c-316 0 -476 -4 -514 -13z m400 -317 c0 -12 -91 -21 -133 -13 -38 7
-40 8 -17 15 29 9 150 7 150 -2z m-413 -41 c-3 -8 -6 -5 -6 6 -1 11 2 17 5 13
3 -3 4 -12 1 -19z m453 12 c0 -5 -19 -10 -42 -9 -33 0 -38 2 -23 9 28 12 65
12 65 0z m-412 -12 c-2 -8 23 -16 67 -23 49 -8 65 -14 52 -19 -9 -5 -33 -6
-51 -4 -19 2 -33 1 -30 -3 2 -4 -3 -12 -11 -19 -8 -7 -15 -19 -15 -27 0 -8 -5
-11 -10 -8 -6 4 -8 10 -5 15 3 5 1 11 -3 14 -7 4 -9 69 -3 84 3 8 11 0 9 -10z
m-54 -29 c-3 -5 -10 -7 -15 -3 -5 3 -7 10 -3 15 3 5 10 7 15 3 5 -3 7 -10 3
-15z m-17 -51 c-3 -8 -6 -5 -6 6 -1 11 2 17 5 13 3 -3 4 -12 1 -19z m29 -50
c-3 -13 -6 -32 -7 -43 0 -11 -3 -14 -6 -7 -2 6 -9 10 -14 6 -5 -3 -9 11 -9 30
0 30 4 36 21 36 17 0 20 -4 15 -22z m14 -48 c0 -16 -4 -30 -8 -30 -5 0 -7 14
-4 30 2 17 6 30 8 30 2 0 4 -13 4 -30z"/>
<!-- Lower curved arrow portion -->
<path d="M400 2316 c-184 -51 -333 -206 -387 -401 -7 -27 -16 -126 -20 -219
l-6 -169 69 5 c173 13 316 142 353 316 13 61 15 262 3 262 -12 0 -95 -54 -108
-71 -6 -8 -14 -51 -16 -95 -3 -62 -11 -95 -32 -137 -25 -52 -89 -117 -115
-117 -19 0 -13 141 9 211 36 117 106 203 214 261 57 30 68 33 176 36 136 3
160 7 160 27 0 10 -10 15 -29 15 -24 0 -29 4 -26 20 7 35 16 42 50 38 19 -2
31 0 29 4 -3 4 -22 9 -42 10 -33 1 -32 2 13 8 33 5 -1 7 -100 8 -91 0 -168 -5
-195 -12z"/>
</g>
</svg>
