<svg width="32" height="32" viewBox="0 0 32 32" fill="none" xmlns="http://www.w3.org/2000/svg">
  <defs>
    <linearGradient id="faviconGradient" x1="0%" y1="0%" x2="100%" y2="100%">
      <stop offset="0%" style="stop-color:#10b981"/>
      <stop offset="100%" style="stop-color:#059669"/>
    </linearGradient>
  </defs>
  <!-- Stylized F with curved top and flowing arrow -->
  <path d="M5 7C5 4.5 7 3 9 3C11 3 15 3 18 6C21 9 21 11 19 13C17 15 14 15 13 15L13 27C13 29 11.5 30 10 30C8.5 30 7 29 7 27L7 15L7 11C7 10 8.5 10 10 10L16 10"
        stroke="url(#faviconGradient)"
        stroke-width="2.5"
        stroke-linecap="round"
        stroke-linejoin="round"
        fill="none"/>
  <!-- Arrow flowing out -->
  <path d="M19 18C22 18 25 19 27 22"
        stroke="url(#faviconGradient)"
        stroke-width="2"
        stroke-linecap="round"
        fill="none"/>
  <path d="M24 20L27 22L25 25"
        stroke="url(#faviconGradient)"
        stroke-width="2"
        stroke-linecap="round"
        stroke-linejoin="round"
        fill="none"/>
</svg>
